<?xml version="1.0" ?><svg id="Layer_1" style="enable-background:new 0 0 24 24;" version="1.1" height="24" viewBox="0 0 24 24" xml:space="preserve" xmlns="http://www.w3.org/2000/svg" xmlns:xlink="http://www.w3.org/1999/xlink"><style type="text/css">
	.st0{fill:none;stroke:#000000;stroke-width:1.6724;stroke-linecap:round;stroke-linejoin:round;stroke-miterlimit:10;}
	.st1{fill:none;stroke:#000000;stroke-width:1.5;stroke-linecap:round;stroke-linejoin:round;stroke-miterlimit:10;}
	.st2{fill:none;stroke:#000000;stroke-width:1.5;stroke-linejoin:round;stroke-miterlimit:10;}
</style><g><g><g><path class="st1" d="M17.7,23.3H6.3c-1,0-1.7-0.8-1.7-1.7V6.6h14.8v14.9C19.4,22.5,18.6,23.3,17.7,23.3z"/></g><g><path class="st1" d="M20.4,6V4.2c0-0.7-0.6-1.3-1.3-1.3h-3.7L15,1.4C14.8,1,14.5,0.8,14,0.8H10C9.6,0.8,9.2,1,9,1.4L8.6,2.8H4.9     c-0.7,0-1.3,0.6-1.3,1.3V6c0,0.3,0.3,0.6,0.6,0.6h15.6C20.2,6.6,20.4,6.3,20.4,6z"/></g></g><g><g><line class="st1" x1="8.8" x2="8.8" y1="10.2" y2="19.7"/></g><g><line class="st1" x1="12" x2="12" y1="10.2" y2="19.7"/></g><g><line class="st1" x1="15.2" x2="15.2" y1="10.2" y2="19.7"/></g></g></g></svg>